<svg version="1.1" id="Layer_1" xmlns="http://www.w3.org/2000/svg" xmlns:xlink="http://www.w3.org/1999/xlink" x="0px" y="0px"
	 width="100%" viewBox="0 0 1080 1080" enable-background="new 0 0 1080 1080" xml:space="preserve">
<path fill="#000000" opacity="1.000000" stroke="none" 
	d="
M608.000000,1081.000000 
	C405.356659,1081.000000 203.213318,1081.000000 1.034993,1081.000000 
	C1.034993,721.064880 1.034993,361.129730 1.034993,1.097306 
	C360.893585,1.097306 720.787170,1.097306 1080.840332,1.097306 
	C1080.840332,360.999939 1080.840332,720.999939 1080.840332,1081.000000 
	C923.462646,1081.000000 765.981323,1081.000000 608.000000,1081.000000 
M883.648926,140.967667 
	C881.760437,138.014374 879.262878,135.281967 878.096863,132.066681 
	C874.487549,122.113213 870.072998,112.904633 861.586304,105.983002 
	C850.248962,96.736328 838.220032,88.534416 824.237854,84.191338 
	C815.370789,81.437111 805.879700,80.733513 796.710632,78.899467 
	C785.640503,76.685127 775.104919,78.137764 764.805847,82.609535 
	C750.087830,89.000008 738.124390,99.310379 726.679688,110.066925 
	C714.837524,121.197006 703.720947,133.121658 692.605469,144.996811 
	C678.307800,160.271576 664.245544,175.769638 650.238281,191.312393 
	C640.686646,201.911011 631.382751,212.733383 622.003723,223.486786 
	C608.535645,238.928421 594.797302,254.147873 581.737793,269.928467 
	C569.312195,284.943176 557.240356,300.285248 545.709717,315.994781 
	C536.857117,328.055634 529.601196,341.186707 526.473633,356.089539 
	C525.096313,362.652679 524.285522,369.334717 523.144226,376.417633 
	C521.714294,375.070068 520.497375,374.005402 519.372742,372.850830 
	C507.905670,361.078003 496.461243,349.283173 484.995392,337.509155 
	C472.017731,324.182648 459.029083,310.866791 446.037140,297.554199 
	C431.997864,283.168457 417.943787,268.797119 403.906342,254.409576 
	C391.265259,241.453186 378.650635,228.470917 366.001221,215.522629 
	C350.528778,199.684540 335.140564,183.762039 319.510071,168.081177 
	C308.144287,156.678757 296.203552,145.844498 284.959015,134.327484 
	C272.743500,121.815994 257.548920,114.151199 241.998901,107.189812 
	C234.608963,103.881508 226.562820,101.143631 218.577209,100.240524 
	C199.709869,98.106781 181.844757,102.819214 164.695847,110.692261 
	C146.398102,119.092743 129.652374,130.047058 114.153152,142.675415 
	C105.306534,149.883408 96.895485,158.182938 90.271889,167.414215 
	C82.844101,177.766281 77.098061,189.462875 71.647438,201.057327 
	C66.088661,212.881882 62.885216,225.560577 64.071289,238.841888 
	C64.661568,245.451706 65.985626,251.996948 67.003120,258.567474 
	C69.394417,274.009399 74.675720,288.523590 82.544456,301.896454 
	C94.225739,321.748718 109.564949,338.900085 124.726974,356.086304 
	C133.276184,365.776855 142.580200,374.803864 151.591675,384.083710 
	C164.318375,397.189392 177.085236,410.256134 189.841873,423.332703 
	C203.529175,437.363281 217.225403,451.385132 230.916092,465.412384 
	C244.257889,479.082184 257.596313,492.755249 270.938599,506.424561 
	C284.862671,520.689880 298.738953,535.002258 312.731201,549.200439 
	C323.727081,560.358032 334.921478,571.320007 345.910919,582.483887 
	C349.213898,585.839294 352.124908,589.580566 355.507721,593.482117 
	C338.955872,609.533569 322.577393,625.339050 306.287628,641.235413 
	C288.561768,658.533142 270.891907,675.888367 253.245346,693.266968 
	C227.999649,718.129456 202.784561,743.023071 177.583710,767.931091 
	C169.405670,776.014099 161.744095,784.681152 153.075180,792.190918 
	C141.691330,802.052795 131.640442,813.007690 122.573364,824.942261 
	C114.846123,835.113220 109.406189,846.421631 108.102394,859.176514 
	C106.356102,876.260193 110.291306,892.488159 117.468994,907.926208 
	C125.296638,924.762207 137.517029,938.216003 152.048172,949.296997 
	C164.965897,959.147766 179.086868,967.236938 195.029297,971.562012 
	C205.265656,974.339172 215.288162,974.931580 225.546280,971.132324 
	C243.826813,964.361755 258.526184,952.062927 273.136719,939.978516 
	C285.632599,929.643127 296.663696,917.533752 308.313049,906.178589 
	C322.707489,892.147705 337.086304,878.100769 351.444580,864.032959 
	C369.730682,846.116577 388.081055,828.264404 406.225067,810.204956 
	C416.808868,799.670593 426.913727,788.655640 437.472565,778.095398 
	C447.795624,767.770752 458.560547,757.887695 468.879517,747.559082 
	C481.790466,734.636108 494.227814,721.234985 507.282166,708.461914 
	C516.557251,699.386658 526.628906,691.130432 536.095398,682.242859 
	C538.803650,679.700256 540.357056,679.594055 542.902161,682.291931 
	C552.463684,692.427551 562.194458,702.404297 571.911682,712.392090 
	C585.580261,726.441284 599.295532,740.445129 612.986633,754.472473 
	C626.561157,768.380432 640.130615,782.293335 653.702209,796.204224 
	C666.808350,809.638123 679.909607,823.076721 693.021301,836.505249 
	C707.413391,851.245239 721.684814,866.105957 736.248840,880.674133 
	C750.839233,895.268738 765.841248,909.451538 780.454041,924.024231 
	C799.706421,943.223755 823.579956,948.278809 849.349548,945.773682 
	C864.901978,944.261780 879.570068,938.369812 893.663391,931.658264 
	C914.683472,921.648132 932.256836,907.353821 944.201294,887.140808 
	C953.494507,871.414368 957.085876,854.411377 950.154663,836.760742 
	C943.348999,819.429688 931.879150,804.924500 920.155884,790.704651 
	C914.010559,783.250610 907.480469,776.114624 901.297668,768.690491 
	C894.107422,760.056519 887.451904,750.953491 879.937195,742.619446 
	C870.499268,732.152527 860.451355,722.233704 850.619019,712.124695 
	C836.952576,698.073486 823.241272,684.066040 809.550476,670.038635 
	C796.325195,656.488159 783.131042,642.907227 769.870422,629.391541 
	C749.723877,608.857666 729.530212,588.369995 709.362976,567.856445 
	C708.259583,566.734070 707.214844,565.553955 705.846497,564.081909 
	C707.993286,563.642090 709.554749,563.291809 711.127747,563.004883 
	C719.857788,561.412170 728.761658,560.455688 737.283325,558.109436 
	C750.608887,554.440491 762.296143,547.040405 773.304565,538.985596 
	C789.938782,526.814331 806.132874,514.025330 822.244324,501.161011 
	C836.142151,490.064240 849.724426,478.568359 863.333191,467.114746 
	C875.135437,457.181549 886.813171,447.099365 898.484924,437.012390 
	C913.735474,423.832581 929.190002,410.872131 944.062805,397.277008 
	C957.170593,385.295288 969.857422,372.820984 982.222595,360.071991 
	C988.662109,353.432556 994.289490,345.939178 999.787964,338.466736 
	C1012.681152,320.944641 1011.213867,300.965942 1008.484802,281.086914 
	C1006.506470,266.676788 999.711060,254.018066 991.989929,241.879852 
	C984.084900,229.452530 974.866882,218.513184 959.868530,214.457901 
	C954.362366,212.969147 950.268677,209.798340 947.513977,204.973984 
	C942.252625,195.759689 937.117004,186.472244 932.032349,177.158798 
	C927.785034,169.379089 921.936768,163.359741 914.162292,158.943848 
	C904.095398,153.225876 894.302124,147.026321 883.648926,140.967667 
z"/>
<path fill="#FFFFFF" opacity="1.000000" stroke="none" 
	d="
M884.019958,141.000885 
	C894.302124,147.026321 904.095398,153.225876 914.162292,158.943848 
	C921.936768,163.359741 927.785034,169.379089 932.032349,177.158798 
	C937.117004,186.472244 942.252625,195.759689 947.513977,204.973984 
	C950.268677,209.798340 954.362366,212.969147 959.868530,214.457901 
	C974.866882,218.513184 984.084900,229.452530 991.989929,241.879852 
	C999.711060,254.018066 1006.506470,266.676788 1008.484802,281.086914 
	C1011.213867,300.965942 1012.681152,320.944641 999.787964,338.466736 
	C994.289490,345.939178 988.662109,353.432556 982.222595,360.071991 
	C969.857422,372.820984 957.170593,385.295288 944.062805,397.277008 
	C929.190002,410.872131 913.735474,423.832581 898.484924,437.012390 
	C886.813171,447.099365 875.135437,457.181549 863.333191,467.114746 
	C849.724426,478.568359 836.142151,490.064240 822.244324,501.161011 
	C806.132874,514.025330 789.938782,526.814331 773.304565,538.985596 
	C762.296143,547.040405 750.608887,554.440491 737.283325,558.109436 
	C728.761658,560.455688 719.857788,561.412170 711.127747,563.004883 
	C709.554749,563.291809 707.993286,563.642090 705.846497,564.081909 
	C707.214844,565.553955 708.259583,566.734070 709.362976,567.856445 
	C729.530212,588.369995 749.723877,608.857666 769.870422,629.391541 
	C783.131042,642.907227 796.325195,656.488159 809.550476,670.038635 
	C823.241272,684.066040 836.952576,698.073486 850.619019,712.124695 
	C860.451355,722.233704 870.499268,732.152527 879.937195,742.619446 
	C887.451904,750.953491 894.107422,760.056519 901.297668,768.690491 
	C907.480469,776.114624 914.010559,783.250610 920.155884,790.704651 
	C931.879150,804.924500 943.348999,819.429688 950.154663,836.760742 
	C957.085876,854.411377 953.494507,871.414368 944.201294,887.140808 
	C932.256836,907.353821 914.683472,921.648132 893.663391,931.658264 
	C879.570068,938.369812 864.901978,944.261780 849.349548,945.773682 
	C823.579956,948.278809 799.706421,943.223755 780.454041,924.024231 
	C765.841248,909.451538 750.839233,895.268738 736.248840,880.674133 
	C721.684814,866.105957 707.413391,851.245239 693.021301,836.505249 
	C679.909607,823.076721 666.808350,809.638123 653.702209,796.204224 
	C640.130615,782.293335 626.561157,768.380432 612.986633,754.472473 
	C599.295532,740.445129 585.580261,726.441284 571.911682,712.392090 
	C562.194458,702.404297 552.463684,692.427551 542.902161,682.291931 
	C540.357056,679.594055 538.803650,679.700256 536.095398,682.242859 
	C526.628906,691.130432 516.557251,699.386658 507.282166,708.461914 
	C494.227814,721.234985 481.790466,734.636108 468.879517,747.559082 
	C458.560547,757.887695 447.795624,767.770752 437.472565,778.095398 
	C426.913727,788.655640 416.808868,799.670593 406.225067,810.204956 
	C388.081055,828.264404 369.730682,846.116577 351.444580,864.032959 
	C337.086304,878.100769 322.707489,892.147705 308.313049,906.178589 
	C296.663696,917.533752 285.632599,929.643127 273.136719,939.978516 
	C258.526184,952.062927 243.826813,964.361755 225.546280,971.132324 
	C215.288162,974.931580 205.265656,974.339172 195.029297,971.562012 
	C179.086868,967.236938 164.965897,959.147766 152.048172,949.296997 
	C137.517029,938.216003 125.296638,924.762207 117.468994,907.926208 
	C110.291306,892.488159 106.356102,876.260193 108.102394,859.176514 
	C109.406189,846.421631 114.846123,835.113220 122.573364,824.942261 
	C131.640442,813.007690 141.691330,802.052795 153.075180,792.190918 
	C161.744095,784.681152 169.405670,776.014099 177.583710,767.931091 
	C202.784561,743.023071 227.999649,718.129456 253.245346,693.266968 
	C270.891907,675.888367 288.561768,658.533142 306.287628,641.235413 
	C322.577393,625.339050 338.955872,609.533569 355.507721,593.482117 
	C352.124908,589.580566 349.213898,585.839294 345.910919,582.483887 
	C334.921478,571.320007 323.727081,560.358032 312.731201,549.200439 
	C298.738953,535.002258 284.862671,520.689880 270.938599,506.424561 
	C257.596313,492.755249 244.257889,479.082184 230.916092,465.412384 
	C217.225403,451.385132 203.529175,437.363281 189.841873,423.332703 
	C177.085236,410.256134 164.318375,397.189392 151.591675,384.083710 
	C142.580200,374.803864 133.276184,365.776855 124.726974,356.086304 
	C109.564949,338.900085 94.225739,321.748718 82.544456,301.896454 
	C74.675720,288.523590 69.394417,274.009399 67.003120,258.567474 
	C65.985626,251.996948 64.661568,245.451706 64.071289,238.841888 
	C62.885216,225.560577 66.088661,212.881882 71.647438,201.057327 
	C77.098061,189.462875 82.844101,177.766281 90.271889,167.414215 
	C96.895485,158.182938 105.306534,149.883408 114.153152,142.675415 
	C129.652374,130.047058 146.398102,119.092743 164.695847,110.692261 
	C181.844757,102.819214 199.709869,98.106781 218.577209,100.240524 
	C226.562820,101.143631 234.608963,103.881508 241.998901,107.189812 
	C257.548920,114.151199 272.743500,121.815994 284.959015,134.327484 
	C296.203552,145.844498 308.144287,156.678757 319.510071,168.081177 
	C335.140564,183.762039 350.528778,199.684540 366.001221,215.522629 
	C378.650635,228.470917 391.265259,241.453186 403.906342,254.409576 
	C417.943787,268.797119 431.997864,283.168457 446.037140,297.554199 
	C459.029083,310.866791 472.017731,324.182648 484.995392,337.509155 
	C496.461243,349.283173 507.905670,361.078003 519.372742,372.850830 
	C520.497375,374.005402 521.714294,375.070068 523.144226,376.417633 
	C524.285522,369.334717 525.096313,362.652679 526.473633,356.089539 
	C529.601196,341.186707 536.857117,328.055634 545.709717,315.994781 
	C557.240356,300.285248 569.312195,284.943176 581.737793,269.928467 
	C594.797302,254.147873 608.535645,238.928421 622.003723,223.486786 
	C631.382751,212.733383 640.686646,201.911011 650.238281,191.312393 
	C664.245544,175.769638 678.307800,160.271576 692.605469,144.996811 
	C703.720947,133.121658 714.837524,121.197006 726.679688,110.066925 
	C738.124390,99.310379 750.087830,89.000008 764.805847,82.609535 
	C775.104919,78.137764 785.640503,76.685127 796.710632,78.899467 
	C805.879700,80.733513 815.370789,81.437111 824.237854,84.191338 
	C838.220032,88.534416 850.248962,96.736328 861.586304,105.983002 
	C870.072998,112.904633 874.487549,122.113213 878.096863,132.066681 
	C879.262878,135.281967 881.760437,138.014374 884.019958,141.000885 
M312.000000,215.500000 
	C297.723175,200.889832 283.195618,186.514175 269.244202,171.599609 
	C256.776642,158.271317 242.052994,148.684128 225.332535,141.646927 
	C215.249802,137.403351 205.205093,136.701050 194.995758,140.073944 
	C170.177780,148.273148 148.972763,162.636307 129.763992,179.941238 
	C120.682915,188.122253 114.304497,198.483429 109.482368,209.861755 
	C104.911842,220.646439 99.821686,231.134521 102.988708,243.361465 
	C105.401848,252.677887 106.581207,262.500275 110.293198,271.256622 
	C119.058777,291.934021 132.259430,309.796936 148.150864,325.711517 
	C161.645706,339.226013 174.858780,353.021881 188.196548,366.693237 
	C201.534302,380.364563 214.870544,394.037384 228.210205,407.706879 
	C241.899033,421.734131 255.591171,435.758148 269.281860,449.783539 
	C282.972595,463.808929 296.664703,477.832947 310.353546,491.860168 
	C323.693237,505.529694 336.986847,519.244446 350.376770,532.864502 
	C373.579681,556.466187 396.858673,579.993225 420.059570,603.596924 
	C423.519653,607.117004 426.499542,611.128052 430.090820,614.497009 
	C450.345795,633.497803 470.719696,652.371826 491.053070,671.289124 
	C491.516846,672.065491 494.292023,670.105347 496.681824,667.753601 
	C506.183594,658.403015 516.223633,649.486267 524.794067,639.336304 
	C532.400146,630.328430 548.378235,631.366028 555.200256,639.574341 
	C559.945312,645.283630 565.234253,650.551392 570.410522,655.890015 
	C583.589966,669.482788 596.842590,683.004578 610.065796,696.554932 
	C637.238708,724.400269 664.410339,752.246826 691.584839,780.090698 
	C705.041565,793.878906 718.460693,807.704041 731.971863,821.438660 
	C756.613098,846.487244 781.137207,871.655396 806.089722,896.390747 
	C813.567139,903.803040 823.127441,907.687561 834.018799,908.080750 
	C844.140747,908.446289 853.737793,906.406006 863.078735,902.939087 
	C880.464478,896.486145 896.643982,888.137573 907.879089,872.588867 
	C913.546875,864.745117 918.375793,856.309265 912.767090,846.720581 
	C907.485779,837.691345 901.381958,829.091370 895.071716,820.731506 
	C889.560791,813.430664 883.182739,806.790161 877.324097,799.744629 
	C868.152771,788.715454 859.522949,777.202698 849.883179,766.604797 
	C837.823242,753.346069 824.985168,740.794373 812.461426,727.958618 
	C798.308472,713.452942 784.124390,698.977661 769.967407,684.475891 
	C756.858154,671.047302 743.768982,657.598999 730.666809,644.163391 
	C717.331970,630.489258 703.993469,616.818665 690.653809,603.149170 
	C676.964966,589.121887 663.272156,575.098633 649.582336,561.072327 
	C636.358093,547.523071 623.135803,533.971802 609.912170,520.421936 
	C596.106689,506.275787 582.299988,492.130707 568.494812,477.984222 
	C555.271484,464.433990 542.049072,450.882935 528.827087,437.331421 
	C515.488647,423.660675 502.154419,409.985931 488.812805,396.318329 
	C474.772858,381.935211 460.722137,367.562653 446.684021,353.177795 
	C433.693329,339.866211 420.714600,326.542969 407.727814,313.227631 
	C394.391968,299.554413 381.076477,285.861176 367.709198,272.218781 
	C349.327271,253.458466 330.904999,234.737701 312.000000,215.500000 
M858.051025,198.432953 
	C840.492493,215.665848 822.932495,232.897232 805.375854,250.132095 
	C786.841125,268.327148 768.297791,286.513519 749.779663,304.725403 
	C728.080811,326.065399 706.404846,347.428680 684.719238,368.782196 
	C684.363770,369.132263 684.041931,369.747650 683.653625,369.791626 
	C682.270264,369.948303 680.263184,370.533234 679.559875,369.852661 
	C671.203613,361.767365 663.040405,353.482544 654.196716,344.618774 
	C655.669434,343.399567 657.007202,342.435791 658.178345,341.300201 
	C670.336914,329.510742 682.505188,317.730865 694.599609,305.875732 
	C714.667847,286.204529 734.666382,266.462219 754.727966,246.784195 
	C768.603027,233.174408 782.608398,219.696762 796.421631,206.024780 
	C812.055115,190.551102 827.554871,174.941986 843.048767,159.328262 
	C843.987183,158.382538 845.179932,156.602570 844.868469,155.677460 
	C842.645020,149.073975 841.769287,140.883972 837.274414,136.388779 
	C823.379333,122.492584 805.811584,115.724289 785.915955,116.101395 
	C783.302856,116.150917 780.221680,116.928284 778.200012,118.472115 
	C767.987061,126.271172 757.681946,134.022354 748.134644,142.597977 
	C740.021179,149.885757 732.786438,158.171982 725.354065,166.193573 
	C710.340149,182.397675 695.370911,198.645035 680.548706,215.024246 
	C670.863708,225.726624 661.443787,236.669724 651.951294,247.545242 
	C638.476929,262.982727 624.788818,278.243713 611.671387,293.979767 
	C600.016113,307.961945 588.743896,322.285889 577.817139,336.845093 
	C570.366760,346.772217 563.941772,357.621918 562.534973,370.213867 
	C561.487854,379.586273 562.068848,389.145752 562.012085,398.622437 
	C561.938354,410.923218 567.028442,421.478821 574.955688,430.185699 
	C588.144104,444.671265 602.207092,458.360199 615.891907,472.394226 
	C628.209839,485.026459 640.640930,497.551819 652.773193,510.360107 
	C659.129517,517.070618 666.061584,522.216736 675.615967,523.046875 
	C681.124084,523.525391 686.636963,524.150696 692.085266,525.076660 
	C704.979675,527.268127 717.555237,525.566040 729.128113,520.112427 
	C739.253296,515.341187 748.985291,509.397766 758.070312,502.835938 
	C771.634216,493.039246 784.573669,482.363739 797.594360,471.834045 
	C806.620300,464.534882 815.284851,456.790802 824.202820,449.355835 
	C835.477478,439.955963 846.944580,430.785004 858.144531,421.297882 
	C868.778442,412.290192 879.233032,403.067749 889.662109,393.821960 
	C905.280334,379.975891 921.107666,366.344543 936.264404,352.006989 
	C945.963562,342.832001 955.110962,332.952393 963.526611,322.593231 
	C967.735718,317.412079 972.138428,310.498718 972.267395,304.281982 
	C972.543762,290.954498 969.795166,277.688019 962.039062,266.094299 
	C957.208313,258.873444 953.196472,250.966873 943.472168,248.995850 
	C941.007385,248.496277 938.651489,247.213608 936.390381,246.017075 
	C933.506653,244.491028 931.438721,244.940033 929.056641,247.304169 
	C914.553467,261.698425 899.859375,275.899963 885.289429,290.227356 
	C861.925354,313.202515 838.608093,336.225342 815.271606,359.228516 
	C791.697632,382.465790 768.131775,405.711212 744.529236,428.919464 
	C743.335022,430.093842 741.827820,430.950073 740.466370,431.954437 
	C740.809021,431.425659 741.151672,430.896881 741.494324,430.368103 
	C732.607910,421.498962 723.721436,412.629791 714.728027,403.653839 
	C717.313782,401.388702 720.709900,398.703003 723.776062,395.682495 
	C751.512512,368.359314 779.168640,340.954651 806.905029,313.631470 
	C812.796021,307.828094 819.023804,302.366516 824.915344,296.563629 
	C851.730774,270.151428 878.509766,243.701904 905.164978,217.128464 
	C906.384827,215.912308 907.345154,212.706650 906.624634,211.549286 
	C901.270874,202.949448 899.323059,191.544815 887.545471,188.016144 
	C884.533386,187.113678 881.509216,185.473557 879.136597,183.424423 
	C876.557922,181.197388 875.281067,182.203156 873.398010,184.052567 
	C868.565918,188.798401 863.574341,193.381897 858.051025,198.432953 
M213.924240,934.596497 
	C228.187332,927.918640 240.093735,917.800171 251.704895,907.543640 
	C264.252319,896.459961 275.916199,884.369629 287.865997,872.617188 
	C312.642426,848.250061 337.325378,823.787964 362.104126,799.423279 
	C372.065460,789.628418 382.236969,780.047363 392.208923,770.263123 
	C414.397003,748.492615 436.482269,726.617126 458.717804,704.895325 
	C461.372742,702.301758 461.411530,700.698547 458.729767,698.106689 
	C449.868958,689.542969 441.123993,680.851624 432.548737,672.001770 
	C416.958191,655.911987 401.575867,639.619812 385.892151,623.622375 
	C384.901703,622.612183 381.432892,622.585571 380.198395,623.523987 
	C375.989899,626.722961 372.170135,630.461182 368.372742,634.168457 
	C350.897095,651.229370 333.479340,668.349548 316.040466,685.448181 
	C299.077148,702.080566 282.062866,718.661377 265.160706,735.355774 
	C232.377411,767.735840 199.637329,800.159729 166.935425,832.622009 
	C162.817307,836.709961 158.411179,840.727112 155.263550,845.516541 
	C151.538208,851.184998 147.041901,857.451416 146.388596,863.818665 
	C144.699646,880.279602 151.691055,894.481201 162.318802,906.715332 
	C172.831985,918.817810 186.079437,927.306763 200.872192,933.204285 
	C204.625946,934.700867 209.084198,934.430359 213.924240,934.596497 
z"/>
<path fill="#000000" opacity="1.000000" stroke="none" 
	d="
M312.250000,215.750000 
	C330.904999,234.737701 349.327271,253.458466 367.709198,272.218781 
	C381.076477,285.861176 394.391968,299.554413 407.727814,313.227631 
	C420.714600,326.542969 433.693329,339.866211 446.684021,353.177795 
	C460.722137,367.562653 474.772858,381.935211 488.812805,396.318329 
	C502.154419,409.985931 515.488647,423.660675 528.827087,437.331421 
	C542.049072,450.882935 555.271484,464.433990 568.494812,477.984222 
	C582.299988,492.130707 596.106689,506.275787 609.912170,520.421936 
	C623.135803,533.971802 636.358093,547.523071 649.582336,561.072327 
	C663.272156,575.098633 676.964966,589.121887 690.653809,603.149170 
	C703.993469,616.818665 717.331970,630.489258 730.666809,644.163391 
	C743.768982,657.598999 756.858154,671.047302 769.967407,684.475891 
	C784.124390,698.977661 798.308472,713.452942 812.461426,727.958618 
	C824.985168,740.794373 837.823242,753.346069 849.883179,766.604797 
	C859.522949,777.202698 868.152771,788.715454 877.324097,799.744629 
	C883.182739,806.790161 889.560791,813.430664 895.071716,820.731506 
	C901.381958,829.091370 907.485779,837.691345 912.767090,846.720581 
	C918.375793,856.309265 913.546875,864.745117 907.879089,872.588867 
	C896.643982,888.137573 880.464478,896.486145 863.078735,902.939087 
	C853.737793,906.406006 844.140747,908.446289 834.018799,908.080750 
	C823.127441,907.687561 813.567139,903.803040 806.089722,896.390747 
	C781.137207,871.655396 756.613098,846.487244 731.971863,821.438660 
	C718.460693,807.704041 705.041565,793.878906 691.584839,780.090698 
	C664.410339,752.246826 637.238708,724.400269 610.065796,696.554932 
	C596.842590,683.004578 583.589966,669.482788 570.410522,655.890015 
	C565.234253,650.551392 559.945312,645.283630 555.200256,639.574341 
	C548.378235,631.366028 532.400146,630.328430 524.794067,639.336304 
	C516.223633,649.486267 506.183594,658.403015 496.681824,667.753601 
	C494.292023,670.105347 491.516846,672.065491 491.053070,671.289124 
	C470.719696,652.371826 450.345795,633.497803 430.090820,614.497009 
	C426.499542,611.128052 423.519653,607.117004 420.059570,603.596924 
	C396.858673,579.993225 373.579681,556.466187 350.376770,532.864502 
	C336.986847,519.244446 323.693237,505.529694 310.353546,491.860168 
	C296.664703,477.832947 282.972595,463.808929 269.281860,449.783539 
	C255.591171,435.758148 241.899033,421.734131 228.210205,407.706879 
	C214.870544,394.037384 201.534302,380.364563 188.196548,366.693237 
	C174.858780,353.021881 161.645706,339.226013 148.150864,325.711517 
	C132.259430,309.796936 119.058777,291.934021 110.293198,271.256622 
	C106.581207,262.500275 105.401848,252.677887 102.988708,243.361465 
	C99.821686,231.134521 104.911842,220.646439 109.482368,209.861755 
	C114.304497,198.483429 120.682915,188.122253 129.763992,179.941238 
	C148.972763,162.636307 170.177780,148.273148 194.995758,140.073944 
	C205.205093,136.701050 215.249802,137.403351 225.332535,141.646927 
	C242.052994,148.684128 256.776642,158.271317 269.244202,171.599609 
	C283.195618,186.514175 297.723175,200.889832 312.250000,215.750000 
z"/>
<path fill="#000000" opacity="1.000000" stroke="none" 
	d="
M858.348755,198.231628 
	C863.574341,193.381897 868.565918,188.798401 873.398010,184.052567 
	C875.281067,182.203156 876.557922,181.197388 879.136597,183.424423 
	C881.509216,185.473557 884.533386,187.113678 887.545471,188.016144 
	C899.323059,191.544815 901.270874,202.949448 906.624634,211.549286 
	C907.345154,212.706650 906.384827,215.912308 905.164978,217.128464 
	C878.509766,243.701904 851.730774,270.151428 824.915344,296.563629 
	C819.023804,302.366516 812.796021,307.828094 806.905029,313.631470 
	C779.168640,340.954651 751.512512,368.359314 723.776062,395.682495 
	C720.709900,398.703003 717.313782,401.388702 714.728027,403.653839 
	C723.721436,412.629791 732.607910,421.498962 741.494324,430.368103 
	C741.151672,430.896881 740.809021,431.425659 740.466370,431.954437 
	C741.827820,430.950073 743.335022,430.093842 744.529236,428.919464 
	C768.131775,405.711212 791.697632,382.465790 815.271606,359.228516 
	C838.608093,336.225342 861.925354,313.202515 885.289429,290.227356 
	C899.859375,275.899963 914.553467,261.698425 929.056641,247.304169 
	C931.438721,244.940033 933.506653,244.491028 936.390381,246.017075 
	C938.651489,247.213608 941.007385,248.496277 943.472168,248.995850 
	C953.196472,250.966873 957.208313,258.873444 962.039062,266.094299 
	C969.795166,277.688019 972.543762,290.954498 972.267395,304.281982 
	C972.138428,310.498718 967.735718,317.412079 963.526611,322.593231 
	C955.110962,332.952393 945.963562,342.832001 936.264404,352.006989 
	C921.107666,366.344543 905.280334,379.975891 889.662109,393.821960 
	C879.233032,403.067749 868.778442,412.290192 858.144531,421.297882 
	C846.944580,430.785004 835.477478,439.955963 824.202820,449.355835 
	C815.284851,456.790802 806.620300,464.534882 797.594360,471.834045 
	C784.573669,482.363739 771.634216,493.039246 758.070312,502.835938 
	C748.985291,509.397766 739.253296,515.341187 729.128113,520.112427 
	C717.555237,525.566040 704.979675,527.268127 692.085266,525.076660 
	C686.636963,524.150696 681.124084,523.525391 675.615967,523.046875 
	C666.061584,522.216736 659.129517,517.070618 652.773193,510.360107 
	C640.640930,497.551819 628.209839,485.026459 615.891907,472.394226 
	C602.207092,458.360199 588.144104,444.671265 574.955688,430.185699 
	C567.028442,421.478821 561.938354,410.923218 562.012085,398.622437 
	C562.068848,389.145752 561.487854,379.586273 562.534973,370.213867 
	C563.941772,357.621918 570.366760,346.772217 577.817139,336.845093 
	C588.743896,322.285889 600.016113,307.961945 611.671387,293.979767 
	C624.788818,278.243713 638.476929,262.982727 651.951294,247.545242 
	C661.443787,236.669724 670.863708,225.726624 680.548706,215.024246 
	C695.370911,198.645035 710.340149,182.397675 725.354065,166.193573 
	C732.786438,158.171982 740.021179,149.885757 748.134644,142.597977 
	C757.681946,134.022354 767.987061,126.271172 778.200012,118.472115 
	C780.221680,116.928284 783.302856,116.150917 785.915955,116.101395 
	C805.811584,115.724289 823.379333,122.492584 837.274414,136.388779 
	C841.769287,140.883972 842.645020,149.073975 844.868469,155.677460 
	C845.179932,156.602570 843.987183,158.382538 843.048767,159.328262 
	C827.554871,174.941986 812.055115,190.551102 796.421631,206.024780 
	C782.608398,219.696762 768.603027,233.174408 754.727966,246.784195 
	C734.666382,266.462219 714.667847,286.204529 694.599609,305.875732 
	C682.505188,317.730865 670.336914,329.510742 658.178345,341.300201 
	C657.007202,342.435791 655.669434,343.399567 654.196716,344.618774 
	C663.040405,353.482544 671.203613,361.767365 679.559875,369.852661 
	C680.263184,370.533234 682.270264,369.948303 683.653625,369.791626 
	C684.041931,369.747650 684.363770,369.132263 684.719238,368.782196 
	C706.404846,347.428680 728.080811,326.065399 749.779663,304.725403 
	C768.297791,286.513519 786.841125,268.327148 805.375854,250.132095 
	C822.932495,232.897232 840.492493,215.665848 858.348755,198.231628 
z"/>
<path fill="#000000" opacity="1.000000" stroke="none" 
	d="
M213.571487,934.784180 
	C209.084198,934.430359 204.625946,934.700867 200.872192,933.204285 
	C186.079437,927.306763 172.831985,918.817810 162.318802,906.715332 
	C151.691055,894.481201 144.699646,880.279602 146.388596,863.818665 
	C147.041901,857.451416 151.538208,851.184998 155.263550,845.516541 
	C158.411179,840.727112 162.817307,836.709961 166.935425,832.622009 
	C199.637329,800.159729 232.377411,767.735840 265.160706,735.355774 
	C282.062866,718.661377 299.077148,702.080566 316.040466,685.448181 
	C333.479340,668.349548 350.897095,651.229370 368.372742,634.168457 
	C372.170135,630.461182 375.989899,626.722961 380.198395,623.523987 
	C381.432892,622.585571 384.901703,622.612183 385.892151,623.622375 
	C401.575867,639.619812 416.958191,655.911987 432.548737,672.001770 
	C441.123993,680.851624 449.868958,689.542969 458.729767,698.106689 
	C461.411530,700.698547 461.372742,702.301758 458.717804,704.895325 
	C436.482269,726.617126 414.397003,748.492615 392.208923,770.263123 
	C382.236969,780.047363 372.065460,789.628418 362.104126,799.423279 
	C337.325378,823.787964 312.642426,848.250061 287.865997,872.617188 
	C275.916199,884.369629 264.252319,896.459961 251.704895,907.543640 
	C240.093735,917.800171 228.187332,927.918640 213.571487,934.784180 
z"/>
</svg>